<?xml version="1.0" encoding="UTF-8" standalone="no" ?>
<!DOCTYPE svg PUBLIC "-//W3C//DTD SVG 1.1//EN" "http://www.w3.org/Graphics/SVG/1.1/DTD/svg11.dtd">
<svg xmlns="http://www.w3.org/2000/svg" xmlns:xlink="http://www.w3.org/1999/xlink" version="1.1" width="1080" height="1080" viewBox="0 0 1080 1080" xml:space="preserve">
<desc>Created with Fabric.js 5.2.4</desc>
<defs>
</defs>
<g transform="matrix(1 0 0 1 540 540)" id="2522e035-ffdc-4b7e-8f29-463bfd94b391"  >
<rect style="stroke: none; stroke-width: 1; stroke-dasharray: none; stroke-linecap: butt; stroke-dashoffset: 0; stroke-linejoin: miter; stroke-miterlimit: 4; fill: rgb(255,255,255); fill-rule: nonzero; opacity: 1; visibility: hidden;" vector-effect="non-scaling-stroke"  x="-540" y="-540" rx="0" ry="0" width="1080" height="1080" />
</g>
<g transform="matrix(1 0 0 1 540 540)" id="a1f5ceec-b35f-4cf9-a8c3-de4084d3dfc3"  >
</g>
<g transform="matrix(1.39 0 0 1.39 540 540)"  >
<g style=""   >
		<g transform="matrix(1 0 0 1 83.05 -25.95)"  >
<path style="stroke: none; stroke-width: 1; stroke-dasharray: none; stroke-linecap: butt; stroke-dashoffset: 0; stroke-linejoin: miter; stroke-miterlimit: 4; fill: rgb(9,19,178); fill-opacity: 0.91; fill-rule: nonzero; opacity: 1;" vector-effect="non-scaling-stroke"  transform=" translate(-470.55, -391.05)" d="M 486.1 564.4 C 482.5 566.9 478.70000000000005 569.1999999999999 474.8 570.8 C 462.8 576.3 449.1 578.6999999999999 432.6 578.1999999999999 C 402 577.0999999999999 367 565.6999999999999 329.8 553.8 C 279.1 537.5999999999999 226.5 520.4 177.3 526.8 C 121.20000000000002 534 79.4 571.1999999999999 49.30000000000001 640.8 L 48.90000000000001 640.5999999999999 C 116.4 484.4999999999999 229.9 521.0999999999999 330.00000000000006 553.4999999999999 C 367.00000000000006 565.4999999999999 402.00000000000006 576.6999999999999 432.50000000000006 577.7999999999998 C 466.80000000000007 578.9999999999999 490.6000000000001 567.0999999999998 507.4000000000001 540.3999999999999 C 530.1 505 547.1 466 565 425.1 C 619.4 301 675.6 172.7 892.1 141.3 L 892.2 141.70000000000002 C 676 173.10000000000002 619.7 301.20000000000005 565.4000000000001 425.20000000000005 C 547.3000000000001 466.30000000000007 530.4000000000001 504.90000000000003 507.7000000000001 540.8000000000001 C 501.6 550.7 494.5 558.5 486.1 564.4 z" stroke-linecap="round" />
</g>
		<g transform="matrix(1 0 0 1 86.1 -27.55)"  >
<path style="stroke: none; stroke-width: 1; stroke-dasharray: none; stroke-linecap: butt; stroke-dashoffset: 0; stroke-linejoin: miter; stroke-miterlimit: 4; fill: rgb(9,19,178); fill-opacity: 0.91; fill-rule: nonzero; opacity: 1;" vector-effect="non-scaling-stroke"  transform=" translate(-473.6, -389.45)" d="M 500.9 551.4 C 457.2 582.4 397.9 567.1999999999999 335.4 551.1999999999999 C 285.5 538.4999999999999 233.89999999999998 525.4 186.7 534.4999999999999 C 133.39999999999998 544.9999999999999 93.49999999999999 583.4999999999999 65.1 652.4999999999999 L 64.6 652.3999999999999 C 79.89999999999999 615.2999999999998 97.89999999999999 587.6999999999998 119.69999999999999 567.6999999999998 C 139.2 549.9999999999998 161 539.0999999999998 186.39999999999998 533.9999999999998 C 233.79999999999998 524.7999999999997 285.4 537.8999999999997 335.29999999999995 550.5999999999998 C 405.69999999999993 568.4999999999998 472.4 585.4999999999998 516.5999999999999 536.1999999999998 C 552.3 496.29999999999984 573.8999999999999 444.49999999999983 596.8 389.49999999999983 C 620.5999999999999 332.79999999999984 645 273.99999999999983 687 225.89999999999984 C 709.7 199.99999999999983 735.4 179.49999999999983 765.4 163.49999999999983 C 799.3 145.39999999999984 837.6 133.19999999999982 882.5 126.39999999999984 L 882.6 126.79999999999984 C 695 155.3 645.2 274.5 597.1 389.7 C 574.2 444.7 552.6 496.5 516.7 536.5 C 512.3 542.4 506.6 547.3 500.9 551.4 z" stroke-linecap="round" />
</g>
		<g transform="matrix(1 0 0 1 89.7 -29.1)"  >
<path style="stroke: none; stroke-width: 1; stroke-dasharray: none; stroke-linecap: butt; stroke-dashoffset: 0; stroke-linejoin: miter; stroke-miterlimit: 4; fill: rgb(9,19,178); fill-opacity: 0.91; fill-rule: nonzero; opacity: 1;" vector-effect="non-scaling-stroke"  transform=" translate(-477.2, -387.9)" d="M 521.3 536.4 C 499.4 551.9 472.9 559.8 440.49999999999994 560.1999999999999 C 409.29999999999995 560.6999999999999 375.4 554.4 342.5999999999999 548.3 C 293.2999999999999 539.0999999999999 242.39999999999992 529.5999999999999 196.89999999999992 541.8 C 145.79999999999993 555.5 107.99999999999991 595.5 80.89999999999992 664.4 L 80.29999999999993 664.1999999999999 C 140.79999999999993 510.0999999999999 243.59999999999994 529.1999999999999 342.9 547.6999999999999 C 411 560.4 475.5 572.3 526.5 531.9 C 574.6 493.7 597.6 431.29999999999995 622.1 365.4 C 642.4 310.4 663.5 253.79999999999998 700.4 207.29999999999998 C 720.4 182.2 743.1 162.39999999999998 769.6 146.79999999999998 C 799.7 129.29999999999998 833.8000000000001 117.69999999999999 873.9 111.39999999999998 L 874.1 111.99999999999997 C 706.9000000000001 138.29999999999998 664.1 253.89999999999998 622.7 365.5 C 598.3 431.5 575 493.8 527 532.2 C 525.1 533.8 523.2 535.1 521.3 536.4 z" stroke-linecap="round" />
</g>
		<g transform="matrix(1 0 0 1 93.5 -30.55)"  >
<path style="stroke: none; stroke-width: 1; stroke-dasharray: none; stroke-linecap: butt; stroke-dashoffset: 0; stroke-linejoin: miter; stroke-miterlimit: 4; fill: rgb(9,19,178); fill-opacity: 0.91; fill-rule: nonzero; opacity: 1;" vector-effect="non-scaling-stroke"  transform=" translate(-481, -386.45)" d="M 548.9 520.3 C 544.9 523.1999999999999 540.6999999999999 525.9 536.3 528.3 C 479.69999999999993 559.8 415.4 552.0999999999999 353.29999999999995 544.9 C 301.59999999999997 538.9 252.89999999999995 533.1 208.69999999999996 548.1 C 158.79999999999995 565 123.19999999999996 605.8000000000001 97.39999999999996 676.3 L 96.79999999999997 676.0999999999999 C 110.49999999999997 638.8 126.89999999999998 610.0999999999999 146.69999999999996 588.3 C 164.49999999999997 568.9 184.59999999999997 555.5 208.49999999999994 547.4 C 252.79999999999995 532.4 301.5999999999999 538.1 353.4 544.1999999999999 C 415.5 551.4 479.7 558.9999999999999 536.2 527.5999999999999 C 595.8000000000001 494.3999999999999 618.2 422.8999999999999 642.1 347.19999999999993 C 659.2 292.8999999999999 676.8000000000001 236.69999999999993 709.3000000000001 190.59999999999994 C 746.0000000000001 138.59999999999994 797.1 107.79999999999994 865 96.59999999999994 L 865.2 97.19999999999993 C 713.3000000000001 122.19999999999993 677.4000000000001 236.49999999999994 642.9000000000001 347.19999999999993 C 620.4 417.6 599.4 484.5 548.9 520.3 z" stroke-linecap="round" />
</g>
		<g transform="matrix(1 0 0 1 96.55 -32)"  >
<path style="stroke: none; stroke-width: 1; stroke-dasharray: none; stroke-linecap: butt; stroke-dashoffset: 0; stroke-linejoin: miter; stroke-miterlimit: 4; fill: rgb(9,19,178); fill-opacity: 0.91; fill-rule: nonzero; opacity: 1;" vector-effect="non-scaling-stroke"  transform=" translate(-484.05, -385)" d="M 573.5 509.5 C 565.3 515.3 556.1 520.2 545.8 524.1 C 486.49999999999994 546.1 426.69999999999993 542.9 368.99999999999994 539.9 C 315.79999999999995 537.1 265.69999999999993 534.6 221.89999999999995 552.4 C 172.6 572.3 138.1 615.5 113 688 L 112.5 687.9 C 137.6 615.1999999999999 172.1 572 221.4 551.9 C 265.4 533.9 315.6 536.6 369 539.3 C 426.7 542.3 486.4 545.4 545.6 523.4 C 616.3000000000001 497.2 636.7 417.09999999999997 658.4 332 C 672.3 277.5 686.6999999999999 221 715.1 175.1 C 747 123.2 793 92.6 855.6 82 L 855.6 82.7 C 716.3 106.5 687 221.4 658.9 332.2 C 640.4 405 622.6 474.4 573.5 509.5 z" stroke-linecap="round" />
</g>
		<g transform="matrix(1 0 0 1 100.1 -33.55)"  >
<path style="stroke: none; stroke-width: 1; stroke-dasharray: none; stroke-linecap: butt; stroke-dashoffset: 0; stroke-linejoin: miter; stroke-miterlimit: 4; fill: rgb(9,19,178); fill-opacity: 0.91; fill-rule: nonzero; opacity: 1;" vector-effect="non-scaling-stroke"  transform=" translate(-487.6, -383.45)" d="M 595.2 502.3 C 583.9000000000001 510.3 570.6 516.3 555.2 519.7 C 498.40000000000003 532.4000000000001 443.20000000000005 532.4000000000001 394.70000000000005 532.6 C 334.50000000000006 532.7 282.70000000000005 532.8000000000001 237.70000000000005 553.7 C 188.20000000000005 576.7 153.70000000000005 623 129.20000000000005 699.7 L 128.60000000000005 699.5 C 152.90000000000006 622.8 187.50000000000006 576.4 237.20000000000005 553.2 C 282.30000000000007 532.1 334.40000000000003 532.1 394.6 532 C 443.20000000000005 532 498.20000000000005 531.9 555.1 519.1 C 636.7 500.8 654.1 412.40000000000003 672.5 318.5 C 683.2 263.5 694.5 206.5 719.1 160.3 C 747 108 788.6 77.5 846.5 67.2 L 846.6 68 C 718 91.2 695.2 206.9 673.2 318.9 C 658.3 394.9 643.8 467.8 595.2 502.3 z" stroke-linecap="round" />
</g>
		<g transform="matrix(1 0 0 1 103.3 -35.25)"  >
<path style="stroke: none; stroke-width: 1; stroke-dasharray: none; stroke-linecap: butt; stroke-dashoffset: 0; stroke-linejoin: miter; stroke-miterlimit: 4; fill: rgb(9,19,178); fill-opacity: 0.91; fill-rule: nonzero; opacity: 1;" vector-effect="non-scaling-stroke"  transform=" translate(-490.8, -381.75)" d="M 615.3 497.4 C 601.5999999999999 507.09999999999997 585.0999999999999 513.4 564.5 515.4 C 520.1 520 478 521.1999999999999 440.9 522.1999999999999 C 369.7 524.1999999999999 308.09999999999997 525.9 258.9 549.9 C 206 575.6 169.8 627 145 711.3 L 144.2 711.1999999999999 C 157.2 666.5999999999999 173.2 631.9 192.79999999999998 604.9 C 210.89999999999998 580 232.29999999999998 561.8 258.4 549.1999999999999 C 307.9 525.0999999999999 369.29999999999995 523.4 440.79999999999995 521.4999999999999 C 477.9 520.4999999999999 520.0999999999999 519.2999999999998 564.3 514.7999999999998 C 656.9 505.39999999999986 670.5 408.29999999999984 684.8 305.59999999999985 C 692.5999999999999 249.69999999999985 700.6999999999999 191.99999999999986 721.8 145.59999999999985 C 745.5999999999999 92.89999999999985 783.4 62.49999999999986 837.0999999999999 52.19999999999985 L 837.3999999999999 52.89999999999985 C 783.9999999999999 62.99999999999985 746.3999999999999 93.29999999999984 722.7999999999998 145.79999999999984 C 701.6999999999998 192.19999999999985 693.5999999999998 249.89999999999984 685.9999999999999 305.6999999999998 C 674.6 386 663.8 463 615.3 497.4 z" stroke-linecap="round" />
</g>
		<g transform="matrix(1 0 0 1 106.65 -36.7)"  >
<path style="stroke: none; stroke-width: 1; stroke-dasharray: none; stroke-linecap: butt; stroke-dashoffset: 0; stroke-linejoin: miter; stroke-miterlimit: 4; fill: rgb(9,19,178); fill-opacity: 0.91; fill-rule: nonzero; opacity: 1;" vector-effect="non-scaling-stroke"  transform=" translate(-494.15, -380.3)" d="M 634.4 494 C 618.9 505 599.1999999999999 511.2 574 511.3 C 561.7 511.40000000000003 549.5 511.40000000000003 537.9 511.40000000000003 C 434.2 511.40000000000003 352.4 511.3 291.5 537.8000000000001 C 228 565.5000000000001 187.8 622.8000000000001 161 723.3000000000001 L 160.2 723.2 C 174.1 670.7 191.5 630.6 213.39999999999998 600.3000000000001 C 234.09999999999997 571.5000000000001 259.59999999999997 550.9000000000001 291.2 537.1 C 352.2 510.5 434.1 510.70000000000005 537.8 510.70000000000005 C 549.5 510.80000000000007 561.5999999999999 510.70000000000005 573.9 510.6 C 677.6999999999999 510.40000000000003 686.8 405 696.4 293.40000000000003 C 701.1 236.50000000000003 706.3 177.90000000000003 723.9 131.00000000000003 C 743.9 77.90000000000003 778 47.300000000000026 828 37.300000000000026 L 828.1 38.10000000000002 C 778.6 47.90000000000002 744.6 78.40000000000002 724.8000000000001 131.20000000000002 C 707.2 178.10000000000002 702.1 236.60000000000002 697.2 293.20000000000005 C 690.1 378.2 682.9 459.6 634.4 494 z" stroke-linecap="round" />
</g>
		<g transform="matrix(1 0 0 1 110.25 -38.2)"  >
<path style="stroke: none; stroke-width: 1; stroke-dasharray: none; stroke-linecap: butt; stroke-dashoffset: 0; stroke-linejoin: miter; stroke-miterlimit: 4; fill: rgb(9,19,178); fill-opacity: 0.91; fill-rule: nonzero; opacity: 1;" vector-effect="non-scaling-stroke"  transform=" translate(-497.75, -378.8)" d="M 652.7 491.8 C 634.8000000000001 504.5 612 509.5 583.5 507.2 C 328 486.2 228.3 517.5 177.2 735.2 L 176.29999999999998 734.9000000000001 C 202.2 624.2 240.29999999999998 563.3000000000001 303.29999999999995 530.9000000000001 C 369.9 496.7000000000001 463.49999999999994 496.30000000000007 583.5999999999999 506.2000000000001 C 615.8 508.8000000000001 640.4999999999999 502.1000000000001 658.9999999999999 485.7000000000001 C 701.0999999999999 448.3000000000001 704.0999999999999 367.10000000000014 706.9999999999999 281.0000000000001 C 710.9999999999999 164.5000000000001 715.0999999999999 44.2000000000001 819.0999999999999 22.40000000000009 L 819.1999999999999 23.20000000000009 C 715.9 44.8 711.8 164.8 707.8 280.9 C 704.6999999999999 367.2 702 448.59999999999997 659.5 486.09999999999997 C 657.3 488.3 655 490.1 652.7 491.8 z" stroke-linecap="round" />
</g>
		<g transform="matrix(1 0 0 1 113.65 -39.7)"  >
<path style="stroke: none; stroke-width: 1; stroke-dasharray: none; stroke-linecap: butt; stroke-dashoffset: 0; stroke-linejoin: miter; stroke-miterlimit: 4; fill: rgb(9,19,178); fill-opacity: 0.91; fill-rule: nonzero; opacity: 1;" vector-effect="non-scaling-stroke"  transform=" translate(-501.15, -377.3)" d="M 670.6 490.3 C 651.3000000000001 504 625.8000000000001 508.2 592.9 503 C 454.4 481.6 365.79999999999995 490 305.59999999999997 530 C 250.19999999999996 566.8 216.49999999999997 631.7 193.19999999999996 746.9 L 192.29999999999995 746.6 C 215.8 631 249.6 566 305.1 528.9 C 365.40000000000003 488.79999999999995 454.20000000000005 480.29999999999995 593.2 501.59999999999997 C 629.1 507.09999999999997 656.2 501.59999999999997 675.8000000000001 484.7 C 719.0000000000001 447.2 718.0000000000001 360.4 716.7 268.6 C 714.9 151 713 28.8 809.9 7.7 L 810 8.5 C 714 29.6 715.7 151.2 717.3 269.1 C 718.5999999999999 361.20000000000005 719.6999999999999 448.1 676.1999999999999 485.8 C 674.3 487.4 672.6 488.9 670.6 490.3 z" stroke-linecap="round" />
</g>
</g>
</g>
</svg>